<svg width="24" height="24" xmlns="http://www.w3.org/2000/svg">

 <g>
  <title>background</title>
  <rect fill="none" id="canvas_background" height="402" width="582" y="-1" x="-1"/>
 </g>
 <g>
  <title>Layer 1</title>
  <path id="svg_1" d="m9,5c2.21,0 4,1.79 4,4c0,2.21 -1.79,4 -4,4c-2.21,0 -4,-1.79 -4,-4c0,-2.21 1.79,-4 4,-4m0,10c2.67,0 8,1.34 8,4l0,2l-16,0l0,-2c0,-2.66 5.33,-4 8,-4m7.76,-9.64"/>
  <path id="svg_3" d="m21.93749,6.6875" fill-opacity="null" stroke-opacity="null" stroke-width="null" stroke="null" fill="none"/>
  <path stroke="null" transform="rotate(90 18.911491394042972,6.455011367797853) " id="svg_14" d="m16.724065,6.443386l2.187426,-4.831999l2.187426,4.831999l-1.093713,0l0,4.85525l-2.187426,0l0,-4.85525l-1.093713,0z" fill-opacity="null" stroke-opacity="null" stroke-width="0" fill="#000000"/>
  <path stroke="null" transform="rotate(-90 18.286493301391605,10.83000183105469) " id="svg_17" d="m16.099066,10.818376l2.187426,-4.831999l2.187426,4.831999l-1.093713,0l0,4.85525l-2.187426,0l0,-4.85525l-1.093713,0z" fill-opacity="null" stroke-opacity="null" stroke-width="0" fill="#000000"/>
 </g>
</svg>